<svg width="32" height="32" viewBox="0 0 32 32" fill="none" xmlns="http://www.w3.org/2000/svg">
<rect width="32" height="32" rx="16" fill="#FEEBE7"/>
<path d="M16.625 19.2666H17.1667C17.7083 19.2666 18.1583 18.7833 18.1583 18.1999C18.1583 17.4749 17.9 17.3333 17.475 17.1833L16.6333 16.8916V19.2666H16.625Z" fill="#F2380F"/>
<path d="M15.975 7.58327C11.375 7.59993 7.65 11.3416 7.66667 15.9416C7.68333 20.5416 11.425 24.2666 16.025 24.2499C20.625 24.2333 24.35 20.4916 24.3333 15.8916C24.3167 11.2916 20.575 7.57493 15.975 7.58327ZM17.8833 15.9999C18.5333 16.2249 19.4083 16.7083 19.4083 18.1999C19.4083 19.4833 18.4 20.5166 17.1667 20.5166H16.625V20.9999C16.625 21.3416 16.3417 21.6249 16 21.6249C15.6583 21.6249 15.375 21.3416 15.375 20.9999V20.5166H15.075C13.7083 20.5166 12.6 19.3666 12.6 17.9499C12.6 17.6083 12.8833 17.3249 13.225 17.3249C13.5667 17.3249 13.85 17.6083 13.85 17.9499C13.85 18.6749 14.4 19.2666 15.075 19.2666H15.375V16.4499L14.1167 15.9999C13.4667 15.7749 12.5917 15.2916 12.5917 13.7999C12.5917 12.5166 13.6 11.4833 14.8333 11.4833H15.375V10.9999C15.375 10.6583 15.6583 10.3749 16 10.3749C16.3417 10.3749 16.625 10.6583 16.625 10.9999V11.4833H16.925C18.2917 11.4833 19.4 12.6333 19.4 14.0499C19.4 14.3916 19.1167 14.6749 18.775 14.6749C18.4333 14.6749 18.15 14.3916 18.15 14.0499C18.15 13.3249 17.6 12.7333 16.925 12.7333H16.625V15.5499L17.8833 15.9999Z" fill="#F2380F"/>
<path d="M13.85 13.8084C13.85 14.5334 14.1083 14.6751 14.5333 14.8251L15.375 15.1167V12.7334H14.8333C14.2917 12.7334 13.85 13.2167 13.85 13.8084Z" fill="#F2380F"/>
</svg>
