<svg width="32" height="32" viewBox="0 0 32 32" fill="none" xmlns="http://www.w3.org/2000/svg">
<rect width="32" height="32" rx="16" fill="#FEEBE7"/>
<path d="M23.1834 13.0416C22.3084 9.19159 18.95 7.45825 16 7.45825C16 7.45825 16 7.45825 15.9917 7.45825C13.05 7.45825 9.68335 9.18325 8.80835 13.0333C7.83335 17.3333 10.4667 20.9749 12.85 23.2666C13.7334 24.1166 14.8667 24.5416 16 24.5416C17.1334 24.5416 18.2667 24.1166 19.1417 23.2666C21.525 20.9749 24.1584 17.3416 23.1834 13.0416ZM16 17.2166C14.55 17.2166 13.375 16.0416 13.375 14.5916C13.375 13.1416 14.55 11.9666 16 11.9666C17.45 11.9666 18.625 13.1416 18.625 14.5916C18.625 16.0416 17.45 17.2166 16 17.2166Z" fill="#F2380F"/>
</svg>
