<svg width="32" height="32" viewBox="0 0 32 32" fill="none" xmlns="http://www.w3.org/2000/svg">
<rect width="32" height="32" rx="16" fill="#FEEBE7"/>
<path d="M24.3333 23.7083H23.5V14.3166C23.5 13.7999 23.2667 13.3166 22.8583 12.9999L21.8333 12.1999L21.8167 10.1583C21.8167 9.69993 21.4417 9.33327 20.9833 9.33327H18.1417L17.025 8.4666C16.425 7.9916 15.575 7.9916 14.975 8.4666L9.14166 12.9999C8.73332 13.3166 8.49999 13.7999 8.49999 14.3083L8.45832 23.7083H7.66666C7.32499 23.7083 7.04166 23.9916 7.04166 24.3333C7.04166 24.6749 7.32499 24.9583 7.66666 24.9583H24.3333C24.675 24.9583 24.9583 24.6749 24.9583 24.3333C24.9583 23.9916 24.675 23.7083 24.3333 23.7083ZM11.4167 16.6249V15.3749C11.4167 14.9166 11.7917 14.5416 12.25 14.5416H13.9167C14.375 14.5416 14.75 14.9166 14.75 15.3749V16.6249C14.75 17.0833 14.375 17.4583 13.9167 17.4583H12.25C11.7917 17.4583 11.4167 17.0833 11.4167 16.6249ZM18.0833 23.7083H13.9167V21.4166C13.9167 20.7249 14.475 20.1666 15.1667 20.1666H16.8333C17.525 20.1666 18.0833 20.7249 18.0833 21.4166V23.7083ZM20.5833 16.6249C20.5833 17.0833 20.2083 17.4583 19.75 17.4583H18.0833C17.625 17.4583 17.25 17.0833 17.25 16.6249V15.3749C17.25 14.9166 17.625 14.5416 18.0833 14.5416H19.75C20.2083 14.5416 20.5833 14.9166 20.5833 15.3749V16.6249Z" fill="#F2380F"/>
</svg>
