<svg width="33" height="32" viewBox="0 0 33 32" fill="none" xmlns="http://www.w3.org/2000/svg">
<rect x="0.5" width="32" height="32" rx="16" fill="#FEEBE7"/>
<path d="M22.5417 15.1667C23.1253 15.1667 23.6869 15.3893 24.1119 15.7891C24.537 16.189 24.7935 16.7359 24.8292 17.3184L24.8334 17.4584V22.875C24.8333 23.0334 24.7731 23.1858 24.665 23.3015C24.5569 23.4172 24.4089 23.4876 24.251 23.4984C24.093 23.5092 23.9368 23.4596 23.8139 23.3597C23.6911 23.2598 23.6108 23.1169 23.5892 22.96L23.5834 22.875V21H9.41669V22.875C9.41668 23.0261 9.36198 23.172 9.26271 23.2858C9.16344 23.3996 9.02632 23.4737 8.87669 23.4942L8.79169 23.5C8.64066 23.5 8.49474 23.4453 8.38091 23.3461C8.26709 23.2468 8.19306 23.1097 8.17252 22.96L8.16669 22.875V17.4584C8.16666 16.8748 8.38926 16.3132 8.7891 15.8881C9.18893 15.4631 9.73587 15.2065 10.3184 15.1709L10.4584 15.1667H22.5417ZM12.125 9.33337H20.875C21.4586 9.33335 22.0202 9.55595 22.4453 9.95578C22.8703 10.3556 23.1269 10.9026 23.1625 11.485L23.1667 11.625V14.3334H20.6667L20.6609 14.2359C20.6389 14.0499 20.555 13.8767 20.4225 13.7442C20.2901 13.6118 20.1169 13.5278 19.9309 13.5059L19.8334 13.5H18.1667C17.9626 13.5001 17.7656 13.575 17.613 13.7106C17.4605 13.8463 17.3631 14.0332 17.3392 14.2359L17.3334 14.3334H15.6667L15.6609 14.2359C15.6389 14.0499 15.555 13.8767 15.4225 13.7442C15.2901 13.6118 15.1169 13.5278 14.9309 13.5059L14.8334 13.5H13.1667C12.9626 13.5001 12.7656 13.575 12.613 13.7106C12.4605 13.8463 12.3631 14.0332 12.3392 14.2359L12.3334 14.3334H9.83335V11.625C9.83332 11.0415 10.0559 10.4799 10.4558 10.0548C10.8556 9.62972 11.4025 9.37319 11.985 9.33754L12.125 9.33337Z" fill="#F2380F"/>
</svg>
